#!OML:ASF C:\Vicon Data\Big\jianyuan-13\jianyuan\Session 1\Capture.male.ASF
:FULLY-SPECIFIED
:DEGREES
223
root -7.115550 17.734646 -2.426009 -2.063471 7.129240 1.428895
lowerback -2.917836 -3.593638 -2.414070 
upperback 4.101322 -4.707002 0.651973 
thorax 6.148353 -2.454592 1.629703 
lowerneck -7.496596 0.139285 2.236614 
upperneck -1.749234 0.034482 -4.273084 
head 0.726281 -0.053493 -1.717683 
rclavicle 0.000000 0.000000 
rhumerus -59.247881 -19.288518 -67.004051 
rradius 23.841083 
rwrist 40.721273 
rhand -15.018654 -16.701402 
rfingers 0.000000 
rthumb 11.146743 -46.385346 
lclavicle 0.000000 0.000000 
lhumerus 1.247345 -4.983330 92.802721 
lradius 62.423507 
lwrist -15.194501 
lhand -20.838521 3.430120 
lfingers 0.000000 
lthumb 5.530283 33.337989 
rfemur -61.901198 -3.287580 9.797726 
rtibia 33.311899 
rfoot -5.040699 -10.681137 
rtoes -31.747365 
lfemur 3.987308 -6.727040 -27.041201 
ltibia 17.841514 
lfoot -14.588924 2.313627 
ltoes -30.950563 
224
root -7.117608 17.723308 -2.285763 -2.128991 7.512336 1.253063
lowerback -2.940253 -3.742442 -2.388699 
upperback 4.089721 -4.916328 0.814071 
thorax 6.172984 -2.561359 1.763351 
lowerneck -7.438341 0.187820 2.197167 
upperneck -1.782649 0.103317 -4.435757 
head 0.709072 -0.020303 -1.760831 
rclavicle 0.000000 0.000000 
rhumerus -59.124830 -19.412784 -66.838169 
rradius 23.863392 
rwrist 41.102645 
rhand -14.766797 -16.716103 
rfingers 0.000000 
rthumb 11.389672 -46.386817 
lclavicle 0.000000 0.000000 
lhumerus 1.309284 -4.698406 93.170805 
lradius 62.899608 
lwrist -15.404180 
lhand -20.600725 3.348332 
lfingers 0.000000 
lthumb 5.759864 33.250052 
rfemur -62.294587 -3.750073 10.255171 
rtibia 34.446518 
rfoot -4.734633 -10.248229 
rtoes -31.761395 
lfemur 4.423895 -6.787082 -26.844986 
ltibia 18.076057 
lfoot -14.817188 2.111836 
ltoes -30.927656 
225
root -7.118885 17.712621 -2.142603 -2.063001 7.825059 1.178928
lowerback -3.151773 -3.878465 -2.202398 
upperback 4.041810 -5.101230 0.740994 
thorax 6.229407 -2.641610 1.554785 
lowerneck -7.334414 0.239943 2.309019 
upperneck -1.742006 0.165891 -4.362409 
head 0.706448 0.012355 -1.754849 
rclavicle 0.000000 0.000000 
rhumerus -59.116268 -19.695197 -66.928725 
rradius 23.884260 
rwrist 41.188338 
rhand -14.960939 -16.478352 
rfingers 0.000000 
rthumb 11.202390 -46.159296 
lclavicle 0.000000 0.000000 
lhumerus 1.289388 -4.433082 93.262129 
lradius 63.206877 
lwrist -15.638486 
lhand -20.423178 3.258415 
lfingers 0.000000 
lthumb 5.931258 33.155362 
rfemur -62.613220 -4.056724 10.465484 
rtibia 35.332391 
rfoot -4.463812 -9.784870 
rtoes -31.582363 
lfemur 4.696012 -6.791608 -26.740368 
ltibia 18.378386 
lfoot -15.059938 1.948191 
ltoes -30.993667 
226
root -7.120347 17.702009 -1.994284 -1.956838 8.056152 1.067399
lowerback -3.362066 -3.977960 -2.194446 
upperback 3.927469 -5.238651 0.877118 
thorax 6.248752 -2.711289 1.667754 
lowerneck -7.253695 0.271713 2.284578 
upperneck -1.617371 0.216295 -4.490334 
head 0.734695 0.035942 -1.790885 
rclavicle 0.000000 0.000000 
rhumerus -59.087751 -19.862749 -66.726508 
rradius 23.969348 
rwrist 41.057679 
rhand -15.108340 -16.568527 
rfingers 0.000000 
rthumb 11.060291 -46.257148 
lclavicle 0.000000 0.000000 
lhumerus 1.127850 -3.944458 93.794180 
lradius 63.400969 
lwrist -16.138300 
lhand -20.317963 3.258885 
lfingers 0.000000 
lthumb 6.032836 33.153015 
rfemur -62.744335 -4.157871 10.575356 
rtibia 35.932373 
rfoot -4.212878 -9.223761 
rtoes -31.173217 
lfemur 4.933849 -6.735474 -26.590073 
ltibia 18.724407 
lfoot -15.346283 1.874878 
ltoes -32.043977 
